# xmcd
#
# Track frame offsets: 
#        182
#        4632
#        21470
#        32682
#        50110
#        64767
#        87685
#        101595
#        115667
#        125990
#        148350
#        163970
#        177120
#        187450
#        203142
#        218312
#        239847
#        260422
#
# Disc length: 3747 seconds
#
# Revision: 7
# Processed by: cddbd v1.5.2PL0 Copyright (c) Steve Scherf et al.
# Submitted via: ExactAudioCopy v1.0b3
#
DISCID=1b0ea112
DTITLE=John Denver - Live
DYEAR=1997
DGENRE=Country
TTITLE0=The music is you
TTITLE1=Farewell, Andromeda
TTITLE2=Toledo
TTITLE3=Matthew
TTITLE4=Rocky Mountain suite
TTITLE5=Sweet surrender
TTITLE6=Grandma's feather bed
TTITLE7=Annie's song
TTITLE8=The eagle and the hawk
TTITLE9=My sweet lady
TTITLE10=Rhymes and reasons
TTITLE11=Forest lawn
TTITLE12=Blue grass
TTITLE13=Thank God, I'm a country boy
TTITLE14=Take me home, country roads
TTITLE15=Poems, prayers and promises
TTITLE16=Rocky Mountain high
TTITLE17=This old guitar
EXTD=
EXTT0=
EXTT1=
EXTT2=
EXTT3=
EXTT4=
EXTT5=
EXTT6=
EXTT7=
EXTT8=
EXTT9=
EXTT10=
EXTT11=
EXTT12=
EXTT13=
EXTT14=
EXTT15=
EXTT16=
EXTT17=
PLAYORDER=
